<svg version="1.1" id="logo_final" xmlns="http://www.w3.org/2000/svg" x="0" y="0" viewBox="0 0 697 180.8" xml:space="preserve"><style>.st0{fill:#fff}</style><path class="st0" d="M226.3 50.5l15.2 23 15.2-23v31.9h15.9v-64h-13.8L241.5 45l-17.3-26.6h-13.8v64h15.9zm85.1 32.9c18.4 0 32.3-14.2 32.3-33s-13.9-33-32.3-33-32.3 14.2-32.3 33 13.8 33 32.3 33zm0-50.6c10.7 0 16.2 8.8 16.2 17.6S322 68 311.4 68c-10.7 0-16.2-8.8-16.2-17.6s5.5-17.6 16.2-17.6zm81.1-14.4h-47.9v15.4h16v48.6h15.9V33.8h16zm9.3 64l5.1-13.8h20.9l5.1 13.8h16.5l-25-64h-14.2l-24.9 64h16.5zm10.6-28.9l4.9-13.3 4.9 13.3h-9.8zm56.8 7.2l13.7 21.7h18.8l-15.4-24c7.2-3.3 11.4-10.1 11.4-19 0-12.4-9.1-21.1-22.2-21.1h-22.1v64h15.9l-.1-21.6zm0-26.9h4.9c7.4 0 7.4 4.2 7.4 5.6s0 5.6-7.4 5.6h-4.9V33.8z"/><path class="st0" d="M527 61.5c0 4.3-2.3 6.5-6.9 6.5-4.2 0-7.1-4.8-7.1-4.9l-1.8-3.1-11.9 10 1.2 2.2c.3.5 6.4 11.2 19.6 11.2 14.1 0 22.8-8.5 22.8-22.2V18.4H527v43.1zm43.1-4.1h23.3V41.9h-23.3v-8.1h25.2V18.4h-41.1v64h41.6V66.9h-25.7zM635.8 45l-17.3-26.6h-13.8v64h16V50.5l15.1 23 15.2-23v31.9h15.9v-64h-13.8zm43.1-26.6h15.9v64h-15.9zm-446.8 80h-21.7v64h21.7c18.4 0 31.7-13.5 31.7-32s-13.3-32-31.7-32zm.2 48.5h-6v-33.1h6c10.1 0 15.4 8.3 15.4 16.6s-5.3 16.5-15.4 16.5zm53.9-9.5h23.2v-15.5h-23.2v-8.1h25.2V98.4h-41.2v64h41.7v-15.5h-25.7zm72.5-5.3l-24.4-33.7h-13.5v64h15.9v-33.7l24.5 33.7h13.5v-64h-16zm69.6-33.7h-48v15.4h16v48.6h16v-48.6h16zm76.6 0H489v64h40.6v-15.5h-24.7zM90.4 2.4c-48.6 0-88 39.4-88 88s39.4 88 88 88 88-39.4 88-88-39.4-88-88-88zm0 160c-39.8 0-72-32.2-72-72s32.2-72 72-72 72 32.2 72 72-32.2 72-72 72z"/><path class="st0" d="M34.4 90.4c0 30.9 25.1 56 56 56s56-25.1 56-56h-112zm403.1 72l5.1-13.8h20.9l5.1 13.8h16.5l-24.9-64H446l-24.9 64h16.4zm10.7-28.9l4.9-13.3 4.9 13.3h-9.8z"/></svg>